<?xml version="1.0" encoding="UTF-8" standalone="no"?>
<svg
   xmlns:dc="http://purl.org/dc/elements/1.1/"
   xmlns:cc="http://creativecommons.org/ns#"
   xmlns:rdf="http://www.w3.org/1999/02/22-rdf-syntax-ns#"
   xmlns:svg="http://www.w3.org/2000/svg"
   xmlns="http://www.w3.org/2000/svg"
   xmlns:sodipodi="http://sodipodi.sourceforge.net/DTD/sodipodi-0.dtd"
   xmlns:inkscape="http://www.inkscape.org/namespaces/inkscape"
   aria-hidden="true"
   focusable="false"
   data-prefix="fas"
   data-icon="lightbulb"
   class="svg-inline--fa fa-lightbulb fa-w-11"
   role="img"
   viewBox="0 0 512 512"
   version="1.1"
   id="svg4"
   sodipodi:docname="lightbulb-solid.svg"
   width="512"
   height="512"
   inkscape:version="1.0.2-2 (e86c870879, 2021-01-15)">
  <metadata
     id="metadata10">
    <rdf:RDF>
      <cc:Work
         rdf:about="">
        <dc:format>image/svg+xml</dc:format>
        <dc:type
           rdf:resource="http://purl.org/dc/dcmitype/StillImage" />
        <dc:title></dc:title>
      </cc:Work>
    </rdf:RDF>
  </metadata>
  <defs
     id="defs8" />
  <sodipodi:namedview
     pagecolor="#ffffff"
     bordercolor="#666666"
     borderopacity="1"
     objecttolerance="10"
     gridtolerance="10"
     guidetolerance="10"
     inkscape:pageopacity="0"
     inkscape:pageshadow="2"
     inkscape:window-width="1316"
     inkscape:window-height="806"
     id="namedview6"
     showgrid="false"
     inkscape:zoom="0.83007813"
     inkscape:cx="118.37667"
     inkscape:cy="257.20966"
     inkscape:window-x="0"
     inkscape:window-y="0"
     inkscape:window-maximized="0"
     inkscape:current-layer="svg4"
     inkscape:document-rotation="0" />
  <path
     fill="currentColor"
     d="m 176.06,454.35 c 0.01,6.29 1.87,12.45 5.36,17.69 l 17.09,25.69 a 31.99,31.99 0 0 0 26.64,14.28 h 61.71 a 31.99,31.99 0 0 0 26.64,-14.28 l 17.09,-25.69 a 31.989,31.989 0 0 0 5.36,-17.69 L 335.99,416 H 176.01 Z M 80,176 c 0,44.37 16.45,84.85 43.56,115.78 16.52,18.85 42.36,58.23 52.21,91.45 0.04,0.26 0.07,0.52 0.11,0.78 h 160.24 c 0.04,-0.26 0.07,-0.51 0.11,-0.78 9.85,-33.22 35.69,-72.6 52.21,-91.45 C 415.55,260.85 432,220.37 432,176 432,78.61 352.91,-0.3 255.45,0 153.44,0.31 80,82.97 80,176 Z M 256,96 c -44.11,0 -80,35.89 -80,80 0,8.84 -7.16,16 -16,16 -8.84,0 -16,-7.16 -16,-16 0,-61.76 50.24,-112 112,-112 8.84,0 16,7.16 16,16 0,8.84 -7.16,16 -16,16 z"
     id="path2" />
</svg>
